<?xml version="1.0" encoding="utf-8"?>
<!-- Generator: Adobe Illustrator 15.1.0, SVG Export Plug-In . SVG Version: 6.00 Build 0)  -->
<!DOCTYPE svg PUBLIC "-//W3C//DTD SVG 1.1//EN" "http://www.w3.org/Graphics/SVG/1.1/DTD/svg11.dtd">
<svg version="1.1" id="Capa_1" xmlns="http://www.w3.org/2000/svg" xmlns:xlink="http://www.w3.org/1999/xlink" x="0px" y="0px"
	 width="845.895px" height="128px" viewBox="-110.5 0 845.895 128" enable-background="new -110.5 0 845.895 128"
	 xml:space="preserve">
<g id="Layer_1">
</g>
<g id="Layer_2">
	<rect x="-2" y="562.375" fill="none" width="650.5" height="33.562"/>
	<g enable-background="new    ">
		<path fill="#FFFFFF" d="M33.912,592.848h-6.096l-12.051-16.834v16.834H8.498v-28.791h7.034l11.113,15.851v-15.851h7.268
			L33.912,592.848L33.912,592.848z"/>
		<path fill="#FFFFFF" d="M55.06,564.057l10.972,28.791h-7.643l-2.063-5.58H45.87l-2.017,5.58h-7.456l10.973-28.791H55.06z
			 M48.167,581.078h5.908l-2.954-8.112L48.167,581.078z"/>
		<path fill="#FFFFFF" d="M75.973,583.329v9.519h-7.456v-28.791h12.942c6.189,0,10.457,3.519,10.457,9.802
			c0,4.359-2.204,7.36-5.721,8.675l6.752,10.314H84.6l-6.002-9.519H75.973z M75.973,577.327h4.689c2.672,0,3.892-1.36,3.892-3.47
			c0-2.11-1.219-3.471-3.892-3.471h-4.689V577.327z"/>
		<path fill="#FFFFFF" d="M102.888,583.329v9.519h-7.456v-28.791h12.942c6.189,0,10.457,3.519,10.457,9.802
			c0,4.359-2.204,7.36-5.721,8.675l6.752,10.314h-8.347l-6.002-9.519H102.888z M102.888,577.327h4.689
			c2.672,0,3.892-1.36,3.892-3.47c0-2.11-1.219-3.471-3.892-3.471h-4.689V577.327z"/>
		<path fill="#FFFFFF" d="M139.181,564.057l10.972,28.791h-7.643l-2.063-5.58H129.99l-2.017,5.58h-7.456l10.973-28.791H139.181z
			 M132.288,581.078h5.908l-2.954-8.112L132.288,581.078z"/>
		<path fill="#FFFFFF" d="M148.326,564.057h25.321v6.473h-8.909v22.318h-7.549v-22.318h-8.862L148.326,564.057L148.326,564.057z"/>
		<path fill="#FFFFFF" d="M184.29,592.848h-7.549v-28.791h7.549V592.848z"/>
		<path fill="#FFFFFF" d="M197.513,592.848l-10.738-28.791h8.065l6.518,18.616l6.518-18.616h7.737l-10.738,28.791H197.513z"/>
		<path fill="#FFFFFF" d="M231.462,564.057l10.972,28.791h-7.643l-2.063-5.58h-10.457l-2.017,5.58H212.8l10.973-28.791H231.462z
			 M224.569,581.078h5.908l-2.954-8.112L224.569,581.078z"/>
		<path fill="#FFFFFF" d="M244.264,584.032c2.485,1.688,6.002,3.001,9.237,3.001c2.392,0,4.455-0.517,4.455-2.298
			c0-1.406-0.891-1.875-2.438-2.438l-4.361-1.266c-4.83-1.406-7.502-3.798-7.502-8.581c0-5.722,4.83-8.862,10.878-8.862
			c3.892,0,6.658,0.845,9.05,2.157v6.938c-2.579-1.78-5.439-2.859-8.722-2.859c-2.157,0-3.798,0.609-3.798,2.062
			c0,1.312,0.891,1.829,2.391,2.298l4.361,1.312c5.252,1.642,7.643,4.408,7.643,8.815c0,6.235-5.298,9.003-11.77,9.003
			c-3.845,0-7.315-1.078-9.425-2.346L244.264,584.032L244.264,584.032z"/>
		<path fill="#FFFFFF" d="M304.143,564.057v28.791h-7.549v-11.395H285.48v11.395h-7.549v-28.791h7.549v10.927h11.113v-10.927
			H304.143z"/>
		<path fill="#FFFFFF" d="M315.959,592.848h-7.549v-28.791h7.549V592.848z"/>
		<path fill="#FFFFFF" d="M327.729,583.892v8.956h-7.455v-28.791h12.613c6.236,0,10.456,3.519,10.456,9.941
			c0,6.377-4.22,9.894-10.456,9.894H327.729L327.729,583.892z M332.09,570.388h-4.361v7.222h4.361c2.721,0,3.938-1.454,3.938-3.61
			C336.027,571.794,334.811,570.388,332.09,570.388z"/>
		<path fill="#FFFFFF" d="M367.163,564.057v6.473h-13.177v4.501h12.051v6.33h-12.051v4.971h13.177v6.518h-20.585v-28.791
			L367.163,564.057L367.163,564.057z"/>
		<path fill="#FFFFFF" d="M378.37,583.329v9.519h-7.455v-28.791h12.94c6.189,0,10.457,3.519,10.457,9.802
			c0,4.359-2.203,7.36-5.721,8.675l6.752,10.314h-8.347l-6.002-9.519H378.37z M378.37,577.327h4.688c2.674,0,3.893-1.36,3.893-3.47
			c0-2.11-1.219-3.471-3.893-3.471h-4.688V577.327z"/>
		<path fill="#FFFFFF" d="M396.282,564.057h25.321v6.473h-8.909v22.318h-7.55v-22.318h-8.862V564.057L396.282,564.057z"/>
		<path fill="#FFFFFF" d="M445.283,564.057v6.473h-13.178v4.501h12.052v6.33h-12.052v4.971h13.178v6.518h-20.585v-28.791
			L445.283,564.057L445.283,564.057z"/>
		<path fill="#FFFFFF" d="M465.352,578.124l9.706,14.724h-8.393l-5.721-8.861l-5.722,8.861h-8.206l9.706-14.724l-9.236-14.067h8.394
			l5.205,8.206l5.346-8.206h8.158L465.352,578.124z"/>
		<path fill="#FFFFFF" d="M475.949,564.057h25.32v6.473h-8.908v22.318h-7.551v-22.318h-8.861V564.057L475.949,564.057z"/>
		<path fill="#FFFFFF" d="M504.037,581.078v-17.021h7.502v16.365c0,4.079,1.923,6.189,5.064,6.189c3.095,0,5.017-2.11,5.017-6.189
			v-16.365h7.503v17.068c0,7.878-4.924,12.191-12.52,12.191C509.007,593.316,504.037,589.003,504.037,581.078z"/>
		<path fill="#FFFFFF" d="M548.724,564.057l10.974,28.791h-7.645l-2.062-5.58h-10.457l-2.017,5.58h-7.455l10.973-28.791H548.724z
			 M541.831,581.078h5.908l-2.954-8.112L541.831,581.078z"/>
		<path fill="#FFFFFF" d="M562.182,564.057h7.55v22.273h12.896v6.518h-20.444L562.182,564.057L562.182,564.057z"/>
		<path fill="#FFFFFF" d="M606.681,564.057v6.473h-13.177v4.501h12.051v6.33h-12.051v4.971h13.177v6.518h-20.585v-28.791
			L606.681,564.057L606.681,564.057z"/>
		<path fill="#FFFFFF" d="M609.775,584.032c2.484,1.688,6.002,3.001,9.237,3.001c2.392,0,4.454-0.517,4.454-2.298
			c0-1.406-0.891-1.875-2.438-2.438l-4.36-1.266c-4.83-1.406-7.503-3.798-7.503-8.581c0-5.722,4.83-8.862,10.879-8.862
			c3.893,0,6.658,0.845,9.05,2.157v6.938c-2.579-1.78-5.438-2.859-8.722-2.859c-2.157,0-3.798,0.609-3.798,2.062
			c0,1.312,0.891,1.829,2.392,2.298l4.36,1.312c5.252,1.642,7.644,4.408,7.644,8.815c0,6.235-5.299,9.003-11.77,9.003
			c-3.846,0-7.315-1.078-9.426-2.346V584.032z"/>
	</g>
	<line fill="none" stroke="#FFFFFF" stroke-width="12" stroke-miterlimit="10" x1="1.625" y1="618.625" x2="641" y2="618.625"/>
	<line fill="none" stroke="#FFFFFF" stroke-width="12" stroke-miterlimit="10" x1="1.625" y1="536.75" x2="641" y2="536.75"/>
</g>
<image overflow="visible" width="1069" height="200" xlink:href="../../../../../Desktop/Captura de pantalla 2015-04-18 a las 21.25.35.png"  transform="matrix(0.4648 0 0 0.4648 48.5 -177.9512)">
</image>
<image overflow="visible" width="846" height="179" xlink:href="../../../../../Desktop/Captura de pantalla 2015-04-18 a las 21.41.29.png"  transform="matrix(0.9999 0 0 0.9999 -110.5 152.5)">
</image>
<text transform="matrix(1 0 0 1 251.6963 83.2812)" fill="#FFFFFF" font-family="'Metric-Bold'" font-size="59.5">BLOG</text>
<rect x="-97.726" y="7.833" fill="#FFFFFF" width="832.451" height="15.036"/>
<rect x="-97.726" y="100.315" fill="#FFFFFF" width="832.451" height="15.036"/>
</svg>
