<?xml version="1.0" encoding="utf-8"?>
<!-- Generator: Adobe Illustrator 15.1.0, SVG Export Plug-In . SVG Version: 6.00 Build 0)  -->
<!DOCTYPE svg PUBLIC "-//W3C//DTD SVG 1.1//EN" "http://www.w3.org/Graphics/SVG/1.1/DTD/svg11.dtd">
<svg version="1.1" id="Capa_1" xmlns="http://www.w3.org/2000/svg" xmlns:xlink="http://www.w3.org/1999/xlink" x="0px" y="0px"
	 width="640px" height="121px" viewBox="0 507.5 640 121" enable-background="new 0 507.5 640 121" xml:space="preserve">
<g id="Layer_1">
</g>
<g id="Layer_2">
	<rect x="-10.438" y="551.75" fill="none" width="650.5" height="33.562"/>
	<g enable-background="new    ">
		<path fill="#FFFFFF" d="M203.354,573.267v8.956h-7.456v-28.791h12.614c6.236,0,10.457,3.518,10.457,9.941
			c0,6.377-4.22,9.894-10.457,9.894H203.354z M207.714,559.763h-4.361v7.221h4.361c2.72,0,3.939-1.454,3.939-3.61
			C211.653,561.169,210.434,559.763,207.714,559.763z"/>
		<path fill="#FFFFFF" d="M229.659,572.704v9.519h-7.456v-28.791h12.942c6.189,0,10.457,3.518,10.457,9.801
			c0,4.36-2.204,7.361-5.721,8.675l6.752,10.315h-8.347l-6.002-9.519H229.659z M229.659,566.702h4.689
			c2.672,0,3.892-1.36,3.892-3.47c0-2.11-1.219-3.47-3.892-3.47h-4.689V566.702z"/>
		<path fill="#FFFFFF" d="M262.013,582.691c-8.299,0-14.02-6.283-14.02-14.864c0-8.628,5.721-14.864,14.02-14.864
			c8.347,0,14.114,6.236,14.114,14.864C276.127,576.408,270.36,582.691,262.013,582.691z M262.013,559.574
			c-3.892,0-6.424,3.283-6.424,8.253c0,4.971,2.532,8.253,6.424,8.253s6.518-3.282,6.518-8.253
			C268.531,562.857,265.905,559.574,262.013,559.574z"/>
		<path fill="#FFFFFF" d="M295.353,553.432h7.924l-10.41,18.569v10.222h-7.549v-10.222l-10.222-18.569h8.159l6.049,11.254
			L295.353,553.432z"/>
		<path fill="#FFFFFF" d="M326.254,553.432v6.472h-13.177v4.501h12.051v6.33h-12.051v4.971h13.177v6.518h-20.585v-28.791H326.254z"
			/>
		<path fill="#FFFFFF" d="M343.65,552.963c3.048,0,5.486,0.75,7.315,1.97v7.314c-2.063-1.594-4.314-2.344-6.706-2.344
			c-4.782,0-7.83,2.954-7.83,7.924c0,4.924,3.048,7.878,7.83,7.878c2.392,0,4.643-0.703,6.706-2.298v7.315
			c-1.829,1.219-4.268,1.969-7.315,1.969c-8.769,0-14.771-5.908-14.771-14.864S334.882,552.963,343.65,552.963z"/>
		<path fill="#FFFFFF" d="M353.497,553.432h25.321v6.472h-8.909v22.319h-7.55v-22.319h-8.862V553.432z"/>
		<path fill="#FFFFFF" d="M393.589,582.691c-8.3,0-14.021-6.283-14.021-14.864c0-8.628,5.721-14.864,14.021-14.864
			c8.347,0,14.114,6.236,14.114,14.864C407.703,576.408,401.936,582.691,393.589,582.691z M393.589,559.574
			c-3.892,0-6.424,3.283-6.424,8.253c0,4.971,2.532,8.253,6.424,8.253s6.518-3.282,6.518-8.253
			C400.106,562.857,397.48,559.574,393.589,559.574z"/>
		<path fill="#FFFFFF" d="M410.281,573.407c2.485,1.688,6.002,3.001,9.238,3.001c2.391,0,4.454-0.516,4.454-2.298
			c0-1.406-0.891-1.875-2.438-2.438l-4.36-1.266c-4.83-1.406-7.503-3.798-7.503-8.581c0-5.721,4.83-8.862,10.879-8.862
			c3.892,0,6.658,0.845,9.05,2.157v6.939c-2.579-1.781-5.439-2.86-8.722-2.86c-2.157,0-3.798,0.61-3.798,2.063
			c0,1.312,0.891,1.829,2.392,2.298l4.36,1.312c5.252,1.642,7.644,4.408,7.644,8.815c0,6.236-5.299,9.003-11.77,9.003
			c-3.846,0-7.315-1.078-9.426-2.345V573.407z"/>
	</g>
	<line fill="none" stroke="#FFFFFF" stroke-width="12" stroke-miterlimit="10" x1="0.625" y1="608" x2="640" y2="608"/>
	<line fill="none" stroke="#FFFFFF" stroke-width="12" stroke-miterlimit="10" x1="0.625" y1="526.125" x2="640" y2="526.125"/>
</g>
</svg>
